<svg xmlns="http://www.w3.org/2000/svg" xmlns:xlink="http://www.w3.org/1999/xlink" id="visual" viewBox="0 0 900 50" width="900" height="50" version="1.1"><rect x="0" y="0" width="900" height="50" fill="#EDEAE3"/><path d="M0 33L11.5 31.7C23 30.3 46 27.7 69 26.2C92 24.7 115 24.3 138.2 25.3C161.3 26.3 184.7 28.7 207.8 31.5C231 34.3 254 37.7 277 36.5C300 35.3 323 29.7 346 27.8C369 26 392 28 415.2 30.3C438.3 32.7 461.7 35.3 484.8 36C508 36.7 531 35.3 554 34.5C577 33.7 600 33.3 623 34C646 34.7 669 36.3 692.2 35C715.3 33.7 738.7 29.3 761.8 29.2C785 29 808 33 831 34.7C854 36.3 877 35.7 888.5 35.3L900 35" fill="none" stroke="#4C433D" stroke-width="1" stroke-linecap="round" stroke-linejoin="miter"/></svg>